<svg width="28" height="28" viewBox="0 0 28 28" fill="none" xmlns="http://www.w3.org/2000/svg">
<path d="M6.5 9H8.16667H21.5" stroke="#FAF9EB" stroke-linecap="round" stroke-linejoin="round"/>
<path d="M19.8333 9.00001V20.6667C19.8333 21.1087 19.6577 21.5326 19.3452 21.8452C19.0326 22.1577 18.6087 22.3333 18.1667 22.3333H9.83333C9.3913 22.3333 8.96738 22.1577 8.65482 21.8452C8.34226 21.5326 8.16666 21.1087 8.16666 20.6667V9.00001M10.6667 9.00001V7.33334C10.6667 6.89131 10.8423 6.46739 11.1548 6.15483C11.4674 5.84227 11.8913 5.66667 12.3333 5.66667H15.6667C16.1087 5.66667 16.5326 5.84227 16.8452 6.15483C17.1577 6.46739 17.3333 6.89131 17.3333 7.33334V9.00001" stroke="#FAF9EB" stroke-linecap="round" stroke-linejoin="round"/>
<rect x="0.5" y="0.5" width="27" height="27" rx="3.5" stroke="#FAF9EB" stroke-opacity="0.2"/>
</svg>
