<svg width="28" height="28" viewBox="0 0 28 28" fill="none" xmlns="http://www.w3.org/2000/svg">
<path d="M14 20.6667H21.5" stroke="#FAF9EB" stroke-linecap="round" stroke-linejoin="round"/>
<path d="M17.75 6.91666C18.0815 6.58514 18.5312 6.3989 19 6.3989C19.2321 6.3989 19.462 6.44462 19.6765 6.53346C19.891 6.6223 20.0858 6.75251 20.25 6.91666C20.4142 7.08081 20.5444 7.27569 20.6332 7.49017C20.722 7.70464 20.7678 7.93452 20.7678 8.16666C20.7678 8.39881 20.722 8.62868 20.6332 8.84316C20.5444 9.05763 20.4142 9.25251 20.25 9.41666L9.83333 19.8333L6.5 20.6667L7.33333 17.3333L17.75 6.91666Z" stroke="#FAF9EB" stroke-linecap="round" stroke-linejoin="round"/>
<rect x="0.5" y="0.5" width="27" height="27" rx="3.5" stroke="#FAF9EB" stroke-opacity="0.2"/>
</svg>
